<svg xmlns="http://www.w3.org/2000/svg" viewBox="0 0 1024 1024" width="1024" height="1024">
  <defs>
    <!-- 暖色背景渐变 -->
    <linearGradient id="bg" x1="0" y1="0" x2="0" y2="1">
      <stop offset="0%" stop-color="#fefce8"/>
      <stop offset="100%" stop-color="#fef9c3"/>
    </linearGradient>
    <!-- 果肉渐变 -->
    <radialGradient id="flesh" cx="0.5" cy="0.7" r="0.6">
      <stop offset="0%" stop-color="#ff8a8a"/>
      <stop offset="100%" stop-color="#ef4444"/>
    </radialGradient>
    <!-- 外皮渐变 -->
    <linearGradient id="rind" x1="0" y1="0" x2="0" y2="1">
      <stop offset="0%" stop-color="#4ade80"/>
      <stop offset="100%" stop-color="#16a34a"/>
    </linearGradient>
    <!-- 阴影 -->
    <filter id="shadow" x="-10%" y="-5%" width="120%" height="120%">
      <feDropShadow dx="0" dy="8" stdDeviation="14" flood-color="#00000015"/>
    </filter>
  </defs>

  <!-- 圆角方形背景 -->
  <rect width="1024" height="1024" rx="228" fill="url(#bg)"/>

  <!-- 主体组 -->
  <g transform="translate(512, 500)" filter="url(#shadow)">
    <!-- 绿色外皮半圆 -->
    <path d="M-310,40 A310,310 0 0,1 310,40 L310,40 L-310,40 Z" fill="url(#rind)"/>

    <!-- 深绿色条纹 -->
    <g opacity="0.3">
      <path d="M-240,40 Q-200,-180 -140,40" fill="none" stroke="#15803d" stroke-width="28" stroke-linecap="round"/>
      <path d="M-60,40 Q-20,-240 40,40" fill="none" stroke="#15803d" stroke-width="28" stroke-linecap="round"/>
      <path d="M120,40 Q160,-200 220,40" fill="none" stroke="#15803d" stroke-width="28" stroke-linecap="round"/>
    </g>

    <!-- 浅绿白瓤 -->
    <path d="M-270,40 A270,270 0 0,1 270,40 L270,40 L-270,40 Z" fill="#dcfce7"/>

    <!-- 红色果肉 -->
    <path d="M-240,40 A240,240 0 0,1 240,40 L240,40 L-240,40 Z" fill="url(#flesh)"/>

    <!-- 眼睛（种子） -->
    <g>
      <ellipse cx="-80" cy="-55" rx="18" ry="26" fill="#1e293b"/>
      <ellipse cx="-85" cy="-65" rx="6" ry="8" fill="#ffffff" opacity="0.7"/>
      <ellipse cx="80" cy="-55" rx="18" ry="26" fill="#1e293b"/>
      <ellipse cx="75" cy="-65" rx="6" ry="8" fill="#ffffff" opacity="0.7"/>
    </g>

    <!-- 微笑弧线 -->
    <path d="M-50,-5 Q0,40 50,-5" fill="none" stroke="#1e293b" stroke-width="10" stroke-linecap="round"/>

    <!-- 腮红 -->
    <ellipse cx="-130" cy="-15" rx="30" ry="18" fill="#fca5a5" opacity="0.5"/>
    <ellipse cx="130" cy="-15" rx="30" ry="18" fill="#fca5a5" opacity="0.5"/>

    <!-- 小茎 -->
    <path d="M0,-290 Q-15,-340 10,-360" fill="none" stroke="#16a34a" stroke-width="12" stroke-linecap="round"/>
    <!-- 小叶子 -->
    <ellipse cx="18" cy="-355" rx="22" ry="10" fill="#4ade80" transform="rotate(-30 18 -355)"/>
  </g>
</svg>
